#!OML:ASF E:\Style4\Style4.ASF
:FULLY-SPECIFIED
:DEGREES
4152
root 1.98301 17.3728 -2.19997 8.43962 -20.1824 2.37901
lowerback 16.799 -0.824371 1.41627
upperback 11.169 -1.05567 1.19646
thorax 2.51074 -0.561851 0.608107
lowerneck 1.13636 2.27775 -3.7846
upperneck -9.90182 2.23052 -7.20878
head -3.36468 1.50662 -1.78275
rclavicle -4.01545e-014 -9.14409e-015
rhumerus 53.9582 24.2453 -19.247
rradius 75.3724
rwrist -91.8774
rhand -19.215 17.3037
rfingers 7.12502
rthumb 7.09761 -12.5573
lclavicle -4.01545e-014 -9.14409e-015
lhumerus 56.7866 -15.2235 0.0386496
lradius 76.9378
lwrist 76.0256
lhand 9.17587 28.9625
lfingers 7.12502
lthumb 34.3443 55.6692
rfemur -37.887 2.28297 10.7528
rtibia 38.6703
rfoot -11.903 -3.81822
rtoes -21.5324
lfemur -34.1595 9.98911 -28.2174
ltibia 43.6181
lfoot -21.7753 14.431
ltoes -9.39122
4153
root 1.95754 17.3707 -2.19408 8.33814 -20.2085 2.2485
lowerback 16.8957 -0.848241 1.40221
upperback 11.1384 -1.08539 1.08997
thorax 2.42522 -0.574034 0.51005
lowerneck 1.19055 2.36924 -3.73124
upperneck -9.85683 2.37702 -6.99544
head -3.35658 1.56969 -1.72531
rclavicle -3.06128e-014 3.18055e-015
rhumerus 53.5433 24.4191 -18.4307
rradius 75.9361
rwrist -91.9337
rhand -19.2297 17.3506
rfingers 7.12502
rthumb 7.08345 -12.5109
lclavicle -3.06128e-014 3.18055e-015
lhumerus 56.8128 -15.8316 0.344012
lradius 77.544
lwrist 76.2502
lhand 9.11689 28.7665
lfingers 7.12502
lthumb 34.2883 55.4858
rfemur -37.7462 2.35413 10.9878
rtibia 38.7936
rfoot -12.0449 -3.80797
rtoes -21.4965
lfemur -33.9868 10.0443 -27.9493
ltibia 43.6734
lfoot -21.8454 14.3176
ltoes -8.86861
4154
root 1.93304 17.3683 -2.18843 8.23582 -20.2338 2.24328
lowerback 16.9243 -0.848828 1.31719
upperback 11.0826 -1.09423 0.944923
thorax 2.34764 -0.577579 0.407489
lowerneck 1.37208 2.41411 -3.63766
upperneck -9.88544 2.44731 -6.80008
head -3.39956 1.59865 -1.68328
rclavicle -3.97569e-016 3.18055e-015
rhumerus 53.0033 24.613 -17.636
rradius 76.5535
rwrist -91.871
rhand -19.1772 17.3833
rfingers 7.12502
rthumb 7.13411 -12.4765
lclavicle -3.97569e-016 3.18055e-015
lhumerus 56.8732 -16.4778 0.645478
lradius 78.1924
lwrist 76.5898
lhand 9.19529 28.8784
lfingers 7.12502
lthumb 34.3627 55.5809
rfemur -37.6714 2.42613 11.0772
rtibia 38.929
rfoot -12.1261 -3.83308
rtoes -21.4552
lfemur -33.8473 10.0597 -27.8197
ltibia 43.7171
lfoot -21.8649 14.2706
ltoes -8.64868
4155
root 1.90725 17.3662 -2.18288 8.14854 -20.2499 2.25813
lowerback 16.7745 -0.853639 1.18042
upperback 11.1348 -1.1223 0.805214
thorax 2.48047 -0.593382 0.338504
lowerneck 1.39267 2.44519 -3.57705
upperneck -9.90873 2.51201 -6.56116
head -3.41102 1.62117 -1.61733
rclavicle 2.38542e-014 -2.22639e-014
rhumerus 52.5941 24.6622 -16.8166
rradius 77.18
rwrist -91.8432
rhand -19.13 17.3055
rfingers 7.12502
rthumb 7.17971 -12.5527
lclavicle 2.38542e-014 -2.22639e-014
lhumerus 56.8821 -16.9954 0.941964
lradius 78.8968
lwrist 77.1348
lhand 8.61223 29.0951
lfingers 7.12502
lthumb 33.8089 55.921
rfemur -37.6082 2.49752 11.1471
rtibia 39.0617
rfoot -12.2081 -3.87995
rtoes -21.482
lfemur -33.7411 10.0916 -27.7251
ltibia 43.7682
lfoot -21.8866 14.3316
ltoes -8.88391
4156
root 1.87996 17.3645 -2.1775 8.04107 -20.2515 2.28047
lowerback 16.56 -0.84213 1.0078
upperback 11.2504 -1.13582 0.686288
thorax 2.71719 -0.604763 0.307673
lowerneck 1.35236 2.46731 -3.52133
upperneck -9.9459 2.56794 -6.31523
head -3.41617 1.63861 -1.54708
rclavicle -3.53837e-014 2.22639e-014
rhumerus 52.2903 24.6452 -15.9251
rradius 77.7948
rwrist -91.8516
rhand -19.1745 17.243
rfingers 7.12502
rthumb 7.1367 -12.6166
lclavicle -3.53837e-014 2.22639e-014
lhumerus 56.8953 -17.4444 1.22921
lradius 79.6334
lwrist 77.4225
lhand 7.75434 29.2244
lfingers 7.12502
lthumb 32.9934 56.226
rfemur -37.5119 2.51495 11.2218
rtibia 39.1981
rfoot -12.3416 -3.82362
rtoes -21.0648
lfemur -33.6181 10.1091 -27.6286
ltibia 43.8329
lfoot -22.0506 14.353
ltoes -8.80876
4157
root 1.85123 17.3639 -2.17284 7.94408 -20.2104 2.232
lowerback 16.4375 -0.834845 0.861554
upperback 11.3198 -1.14776 0.633549
thorax 2.85744 -0.616771 0.333278
lowerneck 1.28548 2.48054 -3.5975
upperneck -9.90736 2.61231 -6.05896
head -3.39246 1.65187 -1.44798
rclavicle -4.49253e-014 3.53837e-014
rhumerus 52.005 24.6917 -14.8798
rradius 78.4749
rwrist -91.9557
rhand -19.2631 17.2461
rfingers 7.12502
rthumb 7.05116 -12.6165
lclavicle -4.49253e-014 3.53837e-014
lhumerus 56.8547 -17.9551 1.5856
lradius 80.3122
lwrist 77.5624
lhand 7.14156 29.3454
lfingers 7.12502
lthumb 32.4104 56.4682
rfemur -37.382 2.52913 11.3865
rtibia 39.3222
rfoot -12.4547 -3.86532
rtoes -21.0449
lfemur -33.4682 10.1636 -27.468
ltibia 43.9067
lfoot -22.1106 14.2836
ltoes -8.71503
4158
root 1.82182 17.3632 -2.16655 7.85618 -20.117 2.19282
lowerback 16.333 -0.84459 0.693805
upperback 11.347 -1.18212 0.609914
thorax 2.94358 -0.642195 0.405223
lowerneck 1.14158 2.49611 -3.75866
upperneck -9.75892 2.6684 -5.7842
head -3.31762 1.66892 -1.32474
rclavicle -3.89618e-014 2.0276e-014
rhumerus 51.7137 24.8181 -13.7753
rradius 79.2008
rwrist -92.1015
rhand -19.2744 17.2784
rfingers 7.12502
rthumb 7.04029 -12.5845
lclavicle -3.89618e-014 2.0276e-014
lhumerus 56.7554 -18.5201 1.95958
lradius 80.989
lwrist 77.7844
lhand 6.33886 29.2143
lfingers 7.12502
lthumb 31.6462 56.4906
rfemur -37.2459 2.51839 11.5386
rtibia 39.436
rfoot -12.5862 -3.92208
rtoes -21.1274
lfemur -33.3338 10.2251 -27.3233
ltibia 43.9756
lfoot -22.0003 14.2694
ltoes -9.29504
4159
root 1.79058 17.3636 -2.16121 7.75632 -20.0083 2.17997
lowerback 16.2438 -0.863238 0.463289
upperback 11.373 -1.23491 0.589404
thorax 3.02219 -0.680683 0.518283
lowerneck 1.0718 2.53825 -3.84061
upperneck -9.71508 2.74592 -5.59126
head -3.29146 1.70127 -1.24718
rclavicle 1.31198e-014 1.51076e-014
rhumerus 51.5223 24.9893 -12.6834
rradius 79.899
rwrist -92.2501
rhand -19.2985 17.2433
rfingers 7.12502
rthumb 7.01703 -12.6204
lclavicle 1.31198e-014 1.51076e-014
lhumerus 56.5613 -19.0974 2.32776
lradius 81.735
lwrist 78.0169
lhand 5.78189 28.9357
lfingers 7.12502
lthumb 31.1155 56.3151
rfemur -37.1026 2.51668 11.6592
rtibia 39.5325
rfoot -12.7074 -3.92423
rtoes -20.7532
lfemur -33.1935 10.2213 -27.174
ltibia 44.0342
lfoot -21.9716 14.3212
ltoes -9.99554
4160
root 1.7576 17.3657 -2.15554 7.65931 -19.9054 2.15451
lowerback 16.1679 -0.869786 0.218937
upperback 11.3811 -1.27259 0.578465
thorax 3.07537 -0.712847 0.647477
lowerneck 1.14096 2.59178 -3.87932
upperneck -9.78724 2.82244 -5.43521
head -3.33118 1.73844 -1.19473
rclavicle -3.79679e-014 -9.14409e-015
rhumerus 51.3763 25.2042 -11.5638
rradius 80.6191
rwrist -92.4832
rhand -19.3574 17.2248
rfingers 7.12502
rthumb 6.96016 -12.6408
lclavicle -3.79679e-014 -9.14409e-015
lhumerus 56.3531 -19.7047 2.65809
lradius 82.4682
lwrist 78.1789
lhand 5.84253 28.8982
lfingers 7.12502
lthumb 31.1733 56.2665
rfemur -36.9451 2.56298 11.7927
rtibia 39.6301
rfoot -12.7742 -4.06246
rtoes -20.4029
lfemur -33.0267 10.1966 -26.9991
ltibia 44.0736
lfoot -22.0835 14.2457
ltoes -10.0366
4161
root 1.72481 17.366 -2.14744 7.60317 -19.8284 2.0615
lowerback 16.0329 -0.856491 0.105658
upperback 11.4022 -1.26914 0.559866
thorax 3.17045 -0.71687 0.68829
lowerneck 1.06659 2.61443 -3.84643
upperneck -9.68704 2.87199 -5.35614
head -3.282 1.7552 -1.17222
rclavicle 1.05356e-014 -3.04141e-014
rhumerus 51.1366 25.3741 -10.4857
rradius 81.3688
rwrist -92.6974
rhand -19.3783 17.2121
rfingers 7.12502
rthumb 6.93994 -12.6542
lclavicle 1.05356e-014 -3.04141e-014
lhumerus 56.2393 -20.2662 2.87512
lradius 83.2022
lwrist 78.3606
lhand 5.46879 28.8461
lfingers 7.12502
lthumb 30.817 56.2823
rfemur -36.7962 2.62778 11.9863
rtibia 39.7202
rfoot -12.8815 -4.1266
rtoes -19.8126
lfemur -32.8819 10.2007 -26.7687
ltibia 44.1126
lfoot -22.1216 14.1723
ltoes -9.69412
4162
root 1.69206 17.3655 -2.13869 7.53585 -19.7379 1.9881
lowerback 15.9636 -0.869413 0.0747484
upperback 11.3765 -1.28775 0.476702
thorax 3.17707 -0.724145 0.619638
lowerneck 1.01818 2.62739 -3.84855
upperneck -9.57961 2.91372 -5.18278
head -3.23721 1.76621 -1.11302
rclavicle 5.26779e-014 -7.61345e-014
rhumerus 50.8674 25.6146 -9.47682
rradius 82.1344
rwrist -92.9133
rhand -19.4858 17.1828
rfingers 7.12502
rthumb 6.83619 -12.6869
lclavicle 5.26779e-014 -7.61345e-014
lhumerus 56.1107 -20.859 3.05502
lradius 83.9297
lwrist 78.6239
lhand 4.88044 28.8582
lfingers 7.12502
lthumb 30.2559 56.3988
rfemur -36.6586 2.63849 12.1668
rtibia 39.8275
rfoot -13.032 -4.11398
rtoes -19.0779
lfemur -32.7279 10.2287 -26.5666
ltibia 44.1303
lfoot -22.1243 14.1904
ltoes -9.9257
